<svg xmlns="http://www.w3.org/2000/svg" style="display: none;"><symbol id="facebook" viewBox="0 0 512 512"><title>facebook</title><path style="fill:#1976D2;" d="M448,0H64C28.704,0,0,28.704,0,64v384c0,35.296,28.704,64,64,64h384c35.296,0,64-28.704,64-64V64 C512,28.704,483.296,0,448,0z"/><path style="fill:#FAFAFA;" d="M432,256h-80v-64c0-17.664,14.336-16,32-16h32V96h-64l0,0c-53.024,0-96,42.976-96,96v64h-64v80h64 v176h96V336h48L432,256z"/></symbol><symbol id="linkedin" viewBox="0 0 512 512.00038"><title>linkedin</title><linearGradient id="a" gradientUnits="userSpaceOnUse" x1="169.9940010834" x2="299.4934135904" y1="71.98622701" y2="349.0548448864"><stop offset="0" stop-color="#0077b5"/><stop offset="1" stop-color="#0066b2"/></linearGradient><linearGradient id="b"><stop offset="0" stop-color="#0066b2" stop-opacity="0"/><stop offset="1" stop-color="#07485e"/></linearGradient><linearGradient id="c" gradientUnits="userSpaceOnUse" x1="364.2825237824" x2="-379.5864327114" xlink:href="#b" y1="314.0868361356" y2="-84.9521808166"/><linearGradient id="d" gradientUnits="userSpaceOnUse" x1="256.0003" x2="256.0003" xlink:href="#b" y1="415.8267010284" y2="522.8344458318"/><linearGradient id="e" gradientUnits="userSpaceOnUse" x1="271.3543834602" x2="79.916898849" xlink:href="#b" y1="273.7754525398" y2="82.3380683208"/><linearGradient id="f" gradientUnits="userSpaceOnUse" x1="383.7494748922" x2="-1.7565731078" xlink:href="#b" y1="451.630876413" y2="270.924916413"/><linearGradient id="g" gradientUnits="userSpaceOnUse" x1="477.5305473456" x2="208.9696664582" xlink:href="#b" y1="491.2543726544" y2="222.693491767"/><path d="m420.421875 503.234375c-109.503906 11.6875-219.339844 11.6875-328.84375 0-43.664063-4.660156-78.152344-39.148437-82.8125-82.816406-11.6875-109.503907-11.6875-219.335938 0-328.839844 4.660156-43.664063 39.148437-78.152344 82.8125-82.8125 109.503906-11.6875 219.335937-11.6875 328.839844 0 43.667969 4.660156 78.15625 39.148437 82.816406 82.8125 11.6875 109.503906 11.6875 219.335937 0 328.839844-4.660156 43.667969-39.144531 78.15625-82.8125 82.816406zm0 0" fill="url(#a)"/><path d="m475.386719 110.097656c-4.132813-38.746094-34.734375-69.351562-73.484375-73.488281-97.171875-10.367187-194.632813-10.367187-291.804688 0-38.746094 4.136719-69.351562 34.742187-73.488281 73.488281-10.367187 97.171875-10.367187 194.632813 0 291.800782 4.136719 38.75 34.742187 69.355468 73.488281 73.488281 97.171875 10.371093 194.632813 10.371093 291.800782 0 38.75-4.132813 69.355468-34.738281 73.488281-73.488281 10.371093-97.167969 10.371093-194.628907 0-291.800782zm0 0" fill="url(#c)"/><path d="m7.671875 409.804688c.351563 3.539062.714844 7.078124 1.09375 10.617187 4.660156 43.664063 39.148437 78.152344 82.816406 82.8125 109.503907 11.6875 219.335938 11.6875 328.839844 0 43.667969-4.660156 78.152344-39.148437 82.8125-82.8125.378906-3.539063.742187-7.078125 1.097656-10.617187zm0 0" fill="url(#d)"/><path d="m497.714844 443.570312-330.40625-330.410156c-7.378906-9.628906-18.988282-15.84375-32.054688-15.84375-22.289062 0-40.359375 18.066406-40.359375 40.355469 0 13.070313 6.21875 24.679687 15.847657 32.054687l329.257812 329.261719c26.613281-8.855469 47.824219-29.304687 57.714844-55.417969zm0 0" fill="url(#e)"/><path d="m169.152344 204.503906h-67.800782v210.179688l96.203126 96.203125c74.304687 2.8125 148.660156.269531 222.863281-7.652344 12.972656-1.382813 25.125-5.417969 35.9375-11.527344zm0 0" fill="url(#f)"/><path d="m399.410156 222.109375c-12.402344-13.597656-30.257812-22.128906-50.105468-22.128906-31.394532 0-51.65625 11.027343-63.714844 21.265625l-13.285156-16.742188h-62.472657v210.179688l96.492188 96.492187c38.054687-1.238281 76.09375-3.886719 114.097656-7.941406 43.667969-4.660156 78.152344-39.148437 82.8125-82.8125 3.117187-29.195313 5.394531-58.414063 6.847656-87.640625zm0 0" fill="url(#g)"/><g fill="#fff"><path d="m101.355469 204.503906h67.796875v210.179688h-67.796875zm0 0"/><path d="m349.304688 199.980469c-49.683594 0-71.507813 27.613281-77 36.019531v-31.496094h-62.472657v210.179688h67.800781v-105.574219c0-30.507813 14.042969-54.238281 40.679688-54.238281 26.632812 0 30.992188 29.539062 30.992188 65.863281v93.949219h67.800781v-146.902344c0-37.445312-30.355469-67.800781-67.800781-67.800781zm0 0"/><path d="m175.609375 137.675781c0 22.289063-18.066406 40.355469-40.355469 40.355469-22.289062 0-40.359375-18.066406-40.359375-40.355469 0-22.289062 18.070313-40.359375 40.359375-40.359375 22.289063 0 40.355469 18.070313 40.355469 40.359375zm0 0"/></g></symbol><symbol id="twitter" viewBox="0 0 490.659 490.659"><title>twitter</title><path style="fill:#03A9F4;" d="M487.84,92.931c-3.262-3.567-8.514-4.494-12.8-2.261c-4.406,2.002-8.964,3.65-13.632,4.928 c7.28-9.316,12.777-19.897,16.213-31.211c1.513-5.693-1.876-11.535-7.569-13.048c-3.04-0.808-6.281-0.233-8.857,1.571 c-16.219,8.777-33.458,15.52-51.328,20.075c-36.787-34.722-92.823-39.05-134.507-10.389c-32.109,21.71-49.786,59.232-46.08,97.813 c-69.603-5.931-133.642-40.422-176.896-95.275c-2.222-2.688-5.584-4.168-9.067-3.989c-3.532,0.212-6.728,2.162-8.533,5.205 c-14.68,23.997-18.933,52.944-11.776,80.149c3.67,13.978,9.961,27.132,18.539,38.763c-3.864-1.892-7.5-4.218-10.837-6.933 c-4.575-3.711-11.292-3.011-15.004,1.564c-1.54,1.899-2.382,4.269-2.383,6.714c0.634,39.467,22.306,75.588,56.832,94.72 c-4.658-0.572-9.256-1.557-13.739-2.944c-5.641-1.697-11.59,1.5-13.287,7.141c-0.74,2.461-0.567,5.107,0.487,7.451 c14.985,33.567,44.943,58.084,80.811,66.133c-34.173,19.28-73.523,27.381-112.533,23.168c-5.058-0.646-9.85,2.429-11.371,7.296 c-1.568,4.829,0.484,10.093,4.907,12.587c47.765,28.38,102.102,43.82,157.653,44.8c53.294-0.195,105.345-16.113,149.632-45.76 c84.544-56.107,137.237-156.843,129.899-246.976c18.077-13.381,33.758-29.725,46.379-48.341 C491.587,101.802,491.114,96.488,487.84,92.931z"/></symbol><symbol id="instagram" viewBox="0 0 512 512.00038"><title>instagram</title><radialGradient id="a" cx="104.9571229418" cy="447.4474330468" gradientUnits="userSpaceOnUse" r="564.64588968"><stop offset="0" stop-color="#fae100"/><stop offset=".0544" stop-color="#fadc04"/><stop offset=".1167" stop-color="#fbce0e"/><stop offset=".1829" stop-color="#fcb720"/><stop offset=".2514" stop-color="#fe9838"/><stop offset=".3054" stop-color="#ff7950"/><stop offset=".4922" stop-color="#ff1c74"/><stop offset="1" stop-color="#6c1cd1"/></radialGradient><linearGradient id="b" gradientUnits="userSpaceOnUse" x1="196.3726539866" x2="-671.0159540134" y1="222.4596783332" y2="-265.4464136668"><stop offset="0" stop-color="#a1b5d8" stop-opacity="0"/><stop offset=".3094" stop-color="#90a2bd" stop-opacity=".309804"/><stop offset=".7554" stop-color="#7c8b9c" stop-opacity=".756863"/><stop offset="1" stop-color="#748290"/></linearGradient><linearGradient id="c" gradientUnits="userSpaceOnUse" x1="256.0003" x2="256.0003" y1="451.9660859688" y2="531.773969673"><stop offset="0" stop-color="#fae100" stop-opacity="0"/><stop offset=".3068" stop-color="#fca800" stop-opacity=".305882"/><stop offset=".6275" stop-color="#fe7300" stop-opacity=".627451"/><stop offset=".8685" stop-color="#ff5200" stop-opacity=".866667"/><stop offset="1" stop-color="#ff4500"/></linearGradient><linearGradient id="d"><stop offset="0" stop-color="#833ab4" stop-opacity="0"/><stop offset="1" stop-color="#833ab4"/></linearGradient><linearGradient id="e" gradientUnits="userSpaceOnUse" x1="226.8724066998" x2="100.1606848024" xlink:href="#d" y1="226.147987369" y2="99.4361650794"/><linearGradient id="f" gradientUnits="userSpaceOnUse" x1="350.899540777" x2="287.6555669352" xlink:href="#d" y1="468.287448276" y2="170.1375727138"/><linearGradient id="g" gradientUnits="userSpaceOnUse" x1="374.965057" x2="120.9410670648" xlink:href="#d" y1="374.9649673922" y2="120.9408770648"/><linearGradient id="h" gradientUnits="userSpaceOnUse" x1="393.806665096" x2="309.8058007666" xlink:href="#d" y1="221.2631037014" y2="137.2623397642"/><linearGradient id="i" gradientUnits="userSpaceOnUse" x1="357.6582448576" x2="150.5426107646" y1="155.0495285836" y2="362.1651626766"><stop offset="0" stop-color="#833ab4"/><stop offset=".0922" stop-color="#9c3495"/><stop offset=".2927" stop-color="#dc2546"/><stop offset=".392" stop-color="#fd1d1d"/><stop offset=".5589" stop-color="#fc6831"/><stop offset=".6887" stop-color="#fc9b40"/><stop offset=".7521" stop-color="#fcaf45"/><stop offset=".7806" stop-color="#fdb750"/><stop offset=".8656" stop-color="#fecb6a"/><stop offset=".9415" stop-color="#ffd87a"/><stop offset="1" stop-color="#ffdc80"/></linearGradient><path d="m503.234375 91.578125c-4.660156-43.664063-39.144531-78.15625-82.8125-82.8125-109.507813-11.6875-219.335937-11.6875-328.839844 0-43.667969 4.660156-78.15625 39.148437-82.816406 82.8125-11.6875 109.503906-11.6875 219.335937 0 328.839844 4.660156 43.667969 39.148437 78.15625 82.8125 82.816406 109.503906 11.6875 219.335937 11.6875 328.84375 0 43.667969-4.660156 78.152344-39.148437 82.8125-82.816406 11.6875-109.503907 11.6875-219.332031 0-328.839844zm0 0" fill="url(#a)"/><path d="m475.386719 110.097656c-4.132813-38.746094-34.734375-69.351562-73.484375-73.488281-97.171875-10.367187-194.632813-10.367187-291.804688 0-38.746094 4.136719-69.351562 34.742187-73.488281 73.488281-10.367187 97.171875-10.367187 194.632813 0 291.800782 4.136719 38.75 34.742187 69.355468 73.488281 73.488281 97.171875 10.371093 194.632813 10.371093 291.800782 0 38.75-4.132813 69.355468-34.738281 73.488281-73.488281 10.371093-97.167969 10.371093-194.628907 0-291.800782zm0 0" fill="url(#b)"/><path d="m7.671875 409.804688c.351563 3.539062.714844 7.078124 1.09375 10.617187 4.660156 43.664063 39.148437 78.152344 82.816406 82.8125 109.503907 11.6875 219.335938 11.6875 328.839844 0 43.667969-4.660156 78.152344-39.148437 82.8125-82.8125.378906-3.539063.742187-7.078125 1.097656-10.617187zm0 0" fill="url(#c)"/><path d="m503.234375 420.417969c6.28125-58.839844 9.179687-117.773438 8.710937-176.699219l-117.03125-117.03125c-14.621093-16.691406-35.976562-27.109375-61.070312-28.011719-51.605469-1.859375-103.375-1.765625-154.988281.007813-42.867188 1.476562-72.84375 30.289062-80.53125 72.636718-1.355469 7.476563-2.167969 15.050782-3.234375 22.582032v124.148437c.589844 4.023438 1.457031 8.027344 1.726562 12.074219 1.71875 25.757812 12.304688 47.820312 29.253906 62.746094l119.09375 119.089844c58.445313.410156 116.894532-2.496094 175.257813-8.726563 43.667969-4.660156 78.152344-39.148437 82.8125-82.816406zm0 0" fill="url(#e)"/><path d="m503.234375 420.421875c-4.65625 43.660156-39.152344 78.15625-82.8125 82.8125-58.355469 6.226563-116.816406 9.136719-175.253906 8.726563l-118.914063-118.914063c13.785156 12.066406 31.753906 19.414063 52.605469 20.199219 51.601563 1.9375 103.382813 1.886718 154.984375.027344 46.671875-1.6875 80.445312-36.230469 81.902344-82.902344 1.554687-49.554688 1.554687-99.238282 0-148.792969-.664063-21.53125-8.222656-40.476563-20.753906-54.8125l116.957031 116.957031c.460937 58.917969-2.4375 117.859375-8.714844 176.699219zm0 0" fill="url(#f)"/><path d="m316.414062 200.558594c-14.992187-16.324219-36.503906-26.566406-60.414062-26.566406-45.289062 0-82.007812 36.71875-82.007812 82.007812 0 23.910156 10.242187 45.421875 26.566406 60.414062l189.738281 189.738282c10.042969-.875 20.085937-1.847656 30.121094-2.917969 43.667969-4.660156 78.15625-39.148437 82.816406-82.816406 1.070313-10.035157 2.042969-20.078125 2.917969-30.121094zm0 0" fill="url(#g)"/><path d="m511.007812 311.152344-152.703124-152.699219c-3.5625-4.675781-9.175782-7.710937-15.507813-7.710937-10.773437 0-19.511719 8.734374-19.511719 19.511718 0 6.332032 3.035156 11.945313 7.710938 15.507813l177.28125 177.285156c1.203125-17.292969 2.113281-34.59375 2.730468-51.894531zm0 0" fill="url(#h)"/><path d="m95.089844 193.902344c1.066406-7.53125 1.878906-15.105469 3.234375-22.582032 7.683593-42.347656 37.664062-71.160156 80.53125-72.636718 51.613281-1.773438 103.382812-1.867188 154.988281-.007813 46.65625 1.679688 80.445312 36.226563 81.902344 82.898438 1.550781 49.558593 1.550781 99.238281 0 148.796875-1.457032 46.671875-35.234375 81.214844-81.898438 82.898437-51.605468 1.863281-103.386718 1.910157-154.988281-.027343-46.664063-1.753907-78.921875-36.378907-82.042969-83.121094-.269531-4.042969-1.136718-8.050782-1.726562-12.074219 0-41.382813 0-82.765625 0-124.144531zm160.953125 191.707031c23.617187 0 47.257812.707031 70.84375-.164063 36.980469-1.371093 59.726562-23.441406 60.589843-60.386718 1.070313-46.035156 1.070313-92.132813 0-138.171875-.863281-36.9375-23.625-59.523438-60.589843-60.308594-46.917969-.992187-93.886719-.984375-140.804688 0-36.683593.769531-59.496093 22.898437-60.492187 59.429687-1.265625 46.617188-1.265625 93.316407 0 139.933594.996094 36.527344 23.808594 58.144532 60.496094 59.503906 23.289062.867188 46.636718.164063 69.957031.164063zm0 0" fill="url(#i)"/><g fill="#fff"><path d="m95.089844 193.902344c1.066406-7.53125 1.878906-15.105469 3.234375-22.582032 7.683593-42.347656 37.664062-71.160156 80.53125-72.636718 51.613281-1.773438 103.382812-1.867188 154.988281-.007813 46.65625 1.679688 80.445312 36.226563 81.902344 82.898438 1.550781 49.558593 1.550781 99.238281 0 148.796875-1.457032 46.671875-35.234375 81.214844-81.898438 82.898437-51.605468 1.863281-103.386718 1.910157-154.988281-.027343-46.664063-1.753907-78.921875-36.378907-82.042969-83.121094-.269531-4.042969-1.136718-8.050782-1.726562-12.074219 0-41.382813 0-82.765625 0-124.144531zm160.953125 191.707031c23.617187 0 47.257812.707031 70.84375-.164063 36.980469-1.371093 59.726562-23.441406 60.589843-60.386718 1.070313-46.035156 1.070313-92.132813 0-138.171875-.863281-36.9375-23.625-59.523438-60.589843-60.308594-46.917969-.992187-93.886719-.984375-140.804688 0-36.683593.769531-59.496093 22.898437-60.492187 59.429687-1.265625 46.617188-1.265625 93.316407 0 139.933594.996094 36.527344 23.808594 58.144532 60.496094 59.503906 23.289062.867188 46.636718.164063 69.957031.164063zm0 0"/><path d="m256 173.996094c-45.289062 0-82.007812 36.714844-82.007812 82.003906 0 45.292969 36.71875 82.007812 82.007812 82.007812 45.292969 0 82.007812-36.714843 82.007812-82.007812 0-45.289062-36.714843-82.003906-82.007812-82.003906zm0 135.777344c-29.699219 0-53.773438-24.074219-53.773438-53.773438s24.074219-53.773438 53.773438-53.773438 53.773438 24.074219 53.773438 53.773438-24.074219 53.773438-53.773438 53.773438zm0 0"/><path d="m362.304688 170.253906c0 10.773438-8.734376 19.507813-19.507813 19.507813s-19.511719-8.734375-19.511719-19.507813c0-10.777344 8.738282-19.511718 19.511719-19.511718s19.507813 8.734374 19.507813 19.511718zm0 0"/></g></symbol></svg>